<svg width="51" height="50" viewBox="0 0 51 50" fill="none" xmlns="http://www.w3.org/2000/svg">
<path d="M49.8587 35.7739C47.8978 35.3821 46.4194 36.7861 44.5679 34.694C44.0841 34.1477 43.3853 34.4557 43.1636 35.121C41.5746 39.8962 38.2691 37.5892 36.7545 34.2445C36.461 33.5971 35.6302 33.6532 35.3248 34.2445C34.2779 37.1933 32.2621 37.5565 29.2768 35.334C28.8026 34.8565 28.0248 35.0171 27.8465 35.7687C26.5469 41.2505 22.0052 39.7445 20.606 35.24C20.5356 35.0131 20.3841 34.903 20.2266 34.8833C19.9083 34.4245 19.1873 34.287 18.9388 34.9305C17.149 39.5629 13.8268 38.8538 11.7591 34.9366C11.3859 34.2297 10.6153 34.4748 10.3706 35.1456C8.63162 39.9113 3.56464 39.8018 3.65487 34.0731C3.66477 33.4386 2.83987 33.3141 2.70037 33.9245C1.06823 41.064 8.65518 42.3021 11.2833 37.0614C13.9979 40.6157 18.0686 41.3451 20.01 36.5616C21.6663 41.8079 27.0768 42.8398 29.0877 37.6197C31.6415 39.5842 34.0741 39.2756 35.9933 36.4846C38.3339 40.3324 42.5045 41.7499 44.3559 37.0019C46.055 38.3257 47.1821 37.3996 49.6405 37.6265C50.5581 37.7116 50.7677 35.9558 49.8587 35.7739Z" fill="#00B2A0"/>
<path d="M46.7865 43.4668C46.0173 44.922 45.7514 46.226 44.1037 46.9373C42.0756 47.8135 40.0569 45.7229 39.0574 44.0088C38.7125 43.4172 37.8761 43.3034 37.554 44.0088C36.1422 47.1007 33.0156 46.3457 31.6814 43.3617C31.3534 42.6276 30.2442 42.7586 30.1079 43.5984C29.3582 48.2241 25.9922 48.7137 23.7378 45.361C23.9839 44.4583 22.7004 43.8438 22.3504 44.7274C20.458 49.5069 16.7635 48.973 14.6192 44.7077C14.247 43.9675 13.4133 44.2271 13.1728 44.9253C11.4301 49.9888 8.71576 47.5801 7.19258 44.0948C6.89593 43.4156 6.04987 43.6508 5.87102 44.2936C5.03862 47.2872 3.66725 47.8461 1.35692 48.6206C0.921847 48.7667 0.98905 49.6361 1.4675 49.5627C4.11465 49.1564 5.56044 48.6141 6.64238 46.3441C8.86516 50.3409 11.9683 51.1572 14.0505 46.9518C16.7504 50.8434 21.0875 51.287 23.2364 46.657C25.6233 50.3957 29.6262 50.2117 31.2292 46.1376C33.2972 48.9464 36.3072 49.3411 38.3896 46.1977C41.4887 49.7856 47.8269 50.5887 48.0529 43.8626C48.081 43.0605 47.1268 42.8228 46.7865 43.4668Z" fill="#00B2A0"/>
<path d="M14.2364 7.50507C13.7175 7.67895 13.513 8.12751 13.5287 8.5804C9.85214 9.20593 7.47194 13.383 7.18786 17.5845C6.79937 23.3329 11.0398 26.7097 15.6375 26.2809C20.3384 25.8428 23.3966 21.0025 23.2584 15.8007C23.1203 10.605 18.8458 5.95773 14.2364 7.50507ZM15.0019 23.653C11.6275 23.9717 9.44464 21.3478 9.50917 17.5845C9.57691 13.6401 12.2016 11.0391 15.2442 9.99917C15.2998 9.98006 15.34 9.94738 15.3853 9.9184C18.3513 10.4511 20.5944 11.7506 20.9095 15.8001C21.2367 20.0006 18.5582 23.3163 15.0019 23.653Z" fill="#00B2A0"/>
<path d="M9.95738 7.33132C9.40396 6.63796 8.79084 6.02877 8.16299 5.4276C7.54049 4.83135 6.88025 3.67771 6.0026 3.77205C5.5378 3.822 5.22294 4.16143 5.19054 4.70711C5.12896 5.74267 6.01572 6.25136 6.6607 6.77947C7.39806 7.3828 8.16406 7.92263 8.8484 8.60859C9.60771 9.37008 10.6468 8.19485 9.95738 7.33132Z" fill="#00B2A0"/>
<path d="M4.86959 10.4497C5.16464 10.4907 4.90386 10.4414 4.82595 10.4134C4.70627 10.3699 4.589 10.3178 4.472 10.266C4.33946 10.2077 4.20827 10.1448 4.07735 10.0819C4.06851 10.0776 4.06369 10.0755 4.05057 10.0687C3.92581 9.79276 3.71135 9.57048 3.43531 9.4709C2.9424 9.29239 2.19273 8.86602 1.65992 9.05871C1.35872 9.16784 1.04305 9.45486 0.984416 9.83653C0.984416 9.83653 0.984148 9.83808 0.984148 9.83869C0.928458 10.2003 0.952555 10.6708 1.23288 10.9223C1.38897 11.0617 1.57157 11.1604 1.76193 11.2454C1.60771 11.2448 1.73221 11.2532 1.87171 11.2905C1.9705 11.3296 2.06796 11.3697 2.1697 11.4008C2.41495 11.4958 2.65993 11.5923 2.90384 11.6906C3.04387 11.7477 3.18818 11.7526 3.32768 11.7236C3.82915 11.8771 4.37829 12.051 4.86986 12.0165C5.76357 11.9536 5.72529 10.569 4.86959 10.4497Z" fill="#00B2A0"/>
<path d="M3.3385 19.2588C2.96313 19.6211 2.52511 19.905 2.09833 20.1772C1.87771 20.3181 1.6496 20.4639 1.41319 20.5666C1.27155 20.628 1.04611 20.5765 1.35776 20.6421C1.20301 20.6098 1.05629 20.6064 0.902338 20.5873C-0.395397 20.426 -0.277324 23.1242 1.15321 22.7222C1.68012 22.5742 2.21855 21.9952 2.66648 21.6244C3.18616 21.1943 3.70504 20.7241 4.13342 20.1741C4.62312 19.5458 3.89032 18.7258 3.3385 19.2588Z" fill="#00B2A0"/>
<path d="M6.64562 24.6062C6.20599 25.3831 5.80518 26.1883 5.38697 26.9804C4.93369 27.8383 4.16581 28.4781 4.06514 29.5047C4.00088 30.1601 4.62418 30.4847 5.08443 30.3987C6.02553 30.223 6.48471 28.8437 6.82875 27.9503C7.18378 27.0285 7.40198 26.0616 7.68632 25.1109C7.9048 24.3787 6.98377 24.0081 6.64562 24.6062Z" fill="#00B2A0"/>
<path d="M15.5401 27.3986C15.4475 26.8502 14.7109 26.8764 14.603 27.3986C14.3198 28.7715 13.988 30.1326 13.7099 31.5067C13.6427 31.8384 13.7005 32.2222 13.9289 32.4609C13.8914 32.4032 13.8957 32.4146 13.9415 32.4945C14.2137 33.0068 14.7859 32.9483 15.0681 32.4945C14.8103 32.9088 15.2507 32.2938 15.2665 32.2623C15.3704 32.0579 15.3792 31.8433 15.3902 31.614C15.4132 31.1392 15.4617 30.6656 15.501 30.1924C15.5784 29.2697 15.6954 28.3171 15.5401 27.3986Z" fill="#00B2A0"/>
<path d="M25.3209 28.2096C24.6475 27.0973 23.5782 26.3833 22.9661 25.2346C22.5471 24.4478 21.5875 25.1332 21.9112 25.9446C22.1918 26.6478 22.6204 27.2317 23.063 27.8073C23.2743 28.082 23.4906 28.3502 23.6764 28.6487C23.93 29.0559 24.0341 29.5134 24.5284 29.5927C24.8127 29.6383 25.1372 29.5735 25.2807 29.2397C25.2941 29.2088 25.3075 29.178 25.3206 29.1469C25.4432 28.8626 25.4904 28.4899 25.3209 28.2096Z" fill="#00B2A0"/>
<path d="M29.2384 19.9104C28.1051 19.9792 26.9715 20.0452 25.8381 20.1102C24.8183 20.1688 24.8183 21.8737 25.8381 21.9325C26.9717 21.9979 28.1051 22.0639 29.2384 22.132C30.4829 22.2075 30.4829 19.8355 29.2384 19.9104Z" fill="#00B2A0"/>
<path d="M29.2393 7.09895C28.2112 7.07429 27.3801 8.49614 26.7641 9.32207C26.102 10.2093 25.5202 11.1709 24.8452 12.0465C24.3295 12.7155 25.1244 13.6419 25.6993 13.0299C26.3799 12.3048 26.9978 11.5079 27.6511 10.751C28.02 10.3237 28.4018 9.89334 28.8206 9.53047C29.3355 9.08499 29.74 8.9404 29.9689 8.20141C30.1389 7.65296 29.7015 7.11005 29.2393 7.09895Z" fill="#00B2A0"/>
<path d="M24.2993 1.2963C23.6907 1.74579 23.2848 2.47583 22.8666 3.14329C22.3791 3.92143 21.9156 4.70327 21.3518 5.41296C20.7132 6.21669 21.7065 7.3731 22.3922 6.611C22.9245 6.01907 23.3957 5.37381 23.8575 4.70912C24.3534 3.99573 24.9928 3.34245 25.4008 2.56431C25.8104 1.78371 24.9858 0.789458 24.2993 1.2963Z" fill="#00B2A0"/>
<path d="M16.6955 0.226597C16.3988 -0.0755323 16.0106 -0.0755323 15.7139 0.226597C15.1316 0.819757 15.4002 1.85532 15.4486 2.64486C15.5043 3.55064 15.564 4.45548 15.6355 5.36002C15.7022 6.20352 16.7073 6.20352 16.7739 5.36002C16.8454 4.45517 16.9051 3.55094 16.9608 2.64486C17.0093 1.85563 17.2778 0.819449 16.6955 0.226597Z" fill="#00B2A0"/>
</svg>
